<svg width="924" height="204" viewBox="0 0 924 204" fill="none" xmlns="http://www.w3.org/2000/svg">
<path d="M339.576 67.7297H318.353V169.05H339.576V127.974H386.128V169.05H406.666V67.7297H386.128V108.806H339.576V67.7297ZM502.51 125.921C502.51 142.351 494.295 151.251 479.234 151.251C464.173 151.251 455.957 142.351 455.957 125.236V67.7297H435.419V125.921C435.419 154.674 451.165 171.104 479.234 171.104C507.302 171.104 523.048 154.674 523.048 125.236V67.7297H502.51V125.921ZM701.044 67.7297L677.767 137.559L655.176 67.7297H633.269L668.868 169.05H685.983L709.259 102.644L731.851 169.05H749.65L784.565 67.7297H763.342L740.751 137.559L717.474 67.7297H701.044ZM859.186 106.752H821.533V86.2138H876.301V67.7297H800.995V169.05H878.355V150.566H821.533V125.236H859.186V106.752ZM903.001 67.7297H923.538V169.05H903.001V67.7297ZM609.992 147.828L618.892 169.05H640.799L596.3 67.7297L595.616 67.0451H577.816L533.317 169.05H554.54L563.439 149.197L564.124 147.828H609.992ZM586.716 93.0598L601.092 127.29L601.777 129.344H570.285L570.97 127.29L586.716 93.0598Z" fill="#262729"/>
<path d="M115.712 158.781C115.712 158.781 116.396 158.097 115.712 158.097C84.2203 89.6368 41.0905 36.9227 41.0905 36.9227C41.0905 36.9227 17.8142 58.8299 19.1833 81.4217C19.8679 98.5366 32.8753 108.121 32.8753 108.121C53.4133 127.974 102.704 153.305 114.343 158.781H115.712ZM107.497 175.896C107.497 175.212 106.127 175.212 106.127 175.212L23.9755 177.95C32.8753 193.696 47.9365 206.019 63.6823 202.596C74.6359 199.857 99.2814 182.742 106.812 177.265C108.181 175.896 107.497 175.896 107.497 175.896M108.866 168.366C109.55 167.681 108.866 166.997 108.866 166.997C72.5821 142.351 2.75297 105.383 2.75297 105.383C-3.40842 125.236 4.80677 140.982 4.80677 140.982C13.7066 160.151 30.8215 165.627 30.8215 165.627C38.3521 169.05 46.5673 169.05 46.5673 169.05H108.181C108.866 169.05 108.866 168.366 108.866 168.366ZM114.343 1.32358C110.92 1.32358 101.335 4.06197 101.335 4.06197C79.4281 9.53876 74.6359 29.3921 74.6359 29.3921C70.5283 41.7149 74.6359 55.4069 74.6359 55.4069C82.1665 87.583 117.766 140.982 125.296 151.935L125.981 152.62C126.665 152.62 126.665 151.935 126.665 151.935C138.988 32.1305 114.343 1.32358 114.343 1.32358M141.727 151.935C142.411 151.935 143.096 151.251 143.096 151.251C151.311 139.613 186.225 86.8984 193.756 54.7223C193.756 54.7223 197.864 38.9765 193.756 28.7075C193.756 28.7075 188.279 8.85416 166.372 3.37737C166.372 3.37737 160.211 2.00817 153.365 0.638977C153.365 0.638977 128.719 32.1305 141.042 150.566C141.042 151.935 141.727 151.935 141.727 151.935M160.895 175.212C160.895 175.212 160.211 175.212 160.211 175.896V177.265C168.426 182.742 191.702 199.857 203.34 202.596C203.34 202.596 224.563 210.126 243.047 177.95L160.895 175.212ZM265.639 104.698C265.639 104.698 195.81 142.351 159.526 166.997C159.526 166.997 158.842 167.681 158.842 168.366C158.842 168.366 158.842 169.05 159.526 169.05H222.509C222.509 169.05 228.671 169.05 236.886 165.627C236.886 165.627 254.001 160.151 263.585 140.297C263.585 139.613 271.8 123.867 265.639 104.698M152.68 158.781C152.68 158.781 153.365 159.466 154.049 158.781C165.688 152.62 214.979 127.974 235.517 108.121C235.517 108.121 248.524 97.852 249.209 81.4217C250.578 58.1453 227.301 36.9227 227.301 36.9227C227.301 36.9227 184.172 88.2676 152.68 157.412C152.68 157.412 151.996 158.097 152.68 158.781Z" fill="#CF0A2C"/>
</svg>
