<svg width="230" height="66" viewBox="0 0 230 66" fill="none" xmlns="http://www.w3.org/2000/svg">
<path d="M0 6.43444H15.744V43.8094H23.1369V6.43444H38.8809V0.958252H0V6.43444Z" fill="#232323"/>
<path d="M51.6132 24.2321H67.2203V18.7559H51.6132V6.43444H70.2322V0.958252H44.2203V43.8094H71.4644V38.3332H51.6132V24.2321Z" fill="#232323"/>
<path d="M96.5178 0C83.5118 0 75.1606 8.8988 75.1606 22.4524C75.1606 36.1428 83.5118 44.9047 96.5178 44.9047C102.131 44.9047 106.786 44.2202 111.851 42.7143L112.399 42.5774V25.875H105.143V38.4702C102.952 39.1548 100.625 39.4285 96.5178 39.4285C83.7857 39.4285 82.8273 26.4226 82.8273 22.4524C82.8273 17.3869 84.1964 5.47619 96.5178 5.47619C102.268 5.47619 111.44 8.3512 111.577 8.48811L112.536 8.76189V2.05357L111.988 1.91666C107.607 0.958325 102.542 0 96.5178 0Z" fill="#232323"/>
<path d="M150.322 12.1845C150.322 3.4226 142.381 1.09521 137.589 1.09521H122.393V43.9464H129.649V26.2857H134.714L147.583 43.9464H156.619L141.423 24.2321C146.762 22.0417 150.322 17.1131 150.322 12.1845ZM129.786 6.43453H134.988C139.643 6.43453 142.655 8.76189 142.655 12.1845C142.655 19.1666 136.631 20.6726 131.566 20.6726C131.018 20.6726 130.333 20.6726 129.649 20.5357V6.43453H129.786Z" fill="#232323"/>
<path d="M187.697 27.5178C187.697 34.4999 187.012 39.4284 178.524 39.4284C170.31 39.4284 168.53 34.7737 168.53 27.3808V0.958252H161.274V29.4344C161.274 39.5654 167.161 44.9046 178.25 44.9046C188.792 44.9046 194.268 39.5654 194.268 29.4344V0.958252H187.697V27.5178Z" fill="#232323"/>
<path d="M217.405 18.6191C212.75 16.1548 208.78 14.1012 208.78 10.6786C208.78 9.0357 210.56 5.47619 215.762 5.47619C219.321 5.47619 225.893 7.94046 225.893 7.94046H226.988V1.77974L226.577 1.64287C223.155 0.547636 219.732 0 215.899 0C205.631 0 201.798 7.11905 201.798 11.7738C201.798 18.3452 207.821 21.4941 213.161 24.2322C217.952 26.6964 222.47 29.1607 222.47 33.5417C222.47 37.6488 218.5 39.5655 214.804 39.5655C210.286 39.5655 206.452 38.0595 202.482 36.2798L201.524 35.8691V42.9881L202.071 43.125C206.589 44.494 210.286 45.0416 213.845 45.0416C226.44 45.0416 229.726 36.8274 229.726 32.5833C229.726 25.0535 223.155 21.631 217.405 18.6191Z" fill="#232323"/>
<path d="M90.2203 60.6489C90.9048 61.0596 91.8632 61.4703 92.6846 61.4703C93.3691 61.4703 94.1905 61.0596 94.1905 60.2382C94.1905 58.4584 90.2203 59.006 90.2203 56.131C90.2203 54.4882 91.3155 53.6667 93.0953 53.6667C93.7798 53.6667 94.3274 53.8036 95.1489 53.9405V55.3096C94.4643 55.0358 93.7798 54.8989 93.0953 54.8989C92.4108 54.8989 91.5893 55.1727 91.5893 55.9941C91.5893 57.637 95.6965 57.3632 95.6965 60.1012C95.6965 61.881 94.1905 62.7024 92.5477 62.7024C91.7263 62.7024 90.9048 62.4286 90.0834 62.1548V60.6489H90.2203Z" fill="#232323"/>
<path d="M98.5715 53.6667L101.036 60.3751L104.048 53.6667H105.417L100.214 65.4405H98.7084L100.214 62.2917L96.9286 53.6667H98.5715Z" fill="#232323"/>
<path d="M106.512 60.6489C107.196 61.0596 108.155 61.4703 108.976 61.4703C109.661 61.4703 110.482 61.0596 110.482 60.2382C110.482 58.4584 106.512 59.006 106.512 56.131C106.512 54.4882 107.607 53.6667 109.387 53.6667C110.071 53.6667 110.619 53.8036 111.44 53.9405V55.3096C110.756 55.0358 110.071 54.8989 109.387 54.8989C108.702 54.8989 107.881 55.1727 107.881 55.9941C107.881 57.637 111.988 57.3632 111.988 60.1012C111.988 61.881 110.482 62.7024 108.839 62.7024C108.018 62.7024 107.196 62.4286 106.375 62.1548V60.6489H106.512Z" fill="#232323"/>
<path d="M118.286 53.667V54.8991H116.369V59.5539C116.369 60.6491 116.506 61.4705 117.738 61.4705C118.012 61.4705 118.286 61.4705 118.423 61.3336V62.4289C118.012 62.5658 117.601 62.5658 117.191 62.5658C115.274 62.5658 114.726 60.9229 114.726 60.1015V54.8991H113.631V53.667H114.726V52.0241L116.232 51.8872V53.667H118.286Z" fill="#232323"/>
<path d="M121.435 58.3215C121.435 60.1013 122.393 61.4703 124.173 61.4703C124.994 61.4703 125.816 61.3334 126.5 60.9227V62.1548C125.679 62.4286 124.72 62.7024 123.762 62.7024C120.339 62.7024 119.792 59.5536 119.792 58.1846C119.792 55.9941 121.024 53.6667 123.351 53.6667C125.952 53.6667 126.5 56.131 126.5 58.4584H121.435V58.3215ZM124.994 57.2262C124.994 56.6786 124.994 54.762 123.351 54.762C122.119 54.762 121.571 56.131 121.571 57.2262H124.994Z" fill="#232323"/>
<path d="M130.607 55.3098C131.292 54.2145 132.25 53.53 133.619 53.53C134.577 53.53 135.673 54.2145 135.673 55.3098H135.81C136.357 54.2145 137.452 53.53 138.548 53.53C139.506 53.53 140.875 54.0776 140.875 55.9943V62.4288H139.369V56.2681C139.369 55.3098 138.821 54.8991 138.274 54.8991C137.179 54.8991 136.357 55.8574 135.81 56.6788V62.4288H134.304V56.2681C134.304 55.3098 133.756 54.8991 133.208 54.8991C132.113 54.8991 131.292 55.8574 130.744 56.6788V62.4288H129.238V53.8038H130.744L130.607 55.3098Z" fill="#232323"/>
<path d="M143.613 60.6489C144.298 61.0596 145.256 61.4703 146.077 61.4703C146.762 61.4703 147.583 61.0596 147.583 60.2382C147.583 58.4584 143.613 59.006 143.613 56.131C143.613 54.4882 144.708 53.6667 146.488 53.6667C147.173 53.6667 147.72 53.8036 148.542 53.9405V55.3096C147.857 55.0358 147.173 54.8989 146.488 54.8989C145.804 54.8989 144.982 55.1727 144.982 55.9941C144.982 57.637 149.089 57.3632 149.089 60.1012C149.089 61.881 147.583 62.7024 145.941 62.7024C145.119 62.7024 144.298 62.4286 143.476 62.1548V60.6489H143.613Z" fill="#232323"/>
<path d="M156.756 50.5179H158.262V52.0239H156.756V50.5179ZM158.262 62.2918H156.756V53.6668H158.262V62.2918Z" fill="#232323"/>
<path d="M162.643 55.3098C163.464 54.2145 164.423 53.53 165.655 53.53C167.161 53.53 167.982 54.7622 167.982 55.9943V62.2919H166.476V56.1312C166.476 55.3098 166.066 54.7622 165.381 54.7622C164.286 54.7622 163.328 55.7205 162.78 56.6788V62.2919H161.274V53.6669H162.78L162.643 55.3098Z" fill="#232323"/>
<path d="M174.417 53.667V54.8991H172.5V59.5539C172.5 60.6491 172.637 61.4705 173.869 61.4705C174.143 61.4705 174.417 61.4705 174.554 61.3336V62.4289C174.143 62.5658 173.732 62.5658 173.321 62.5658C171.405 62.5658 170.857 60.9229 170.857 60.1015V54.8991H169.762V53.667H170.857V52.0241L172.363 51.8872V53.667H174.417Z" fill="#232323"/>
<path d="M177.702 58.3215C177.702 60.1013 178.661 61.4703 180.44 61.4703C181.262 61.4703 182.083 61.3334 182.768 60.9227V62.1548C181.946 62.4286 180.988 62.7024 180.03 62.7024C176.607 62.7024 176.06 59.5536 176.06 58.1846C176.06 55.9941 177.292 53.6667 179.619 53.6667C182.22 53.6667 182.768 56.131 182.768 58.4584H177.702V58.3215ZM181.262 57.2262C181.262 56.6786 181.262 54.762 179.619 54.762C178.387 54.762 177.839 56.131 177.839 57.2262H181.262Z" fill="#232323"/>
<path d="M192.214 53.6669V61.3335C192.214 63.9347 191.119 65.5776 188.107 65.5776C187.286 65.5776 186.327 65.4407 185.506 65.1669L185.643 63.7978C186.464 64.2085 187.286 64.4824 188.244 64.4824C190.435 64.4824 190.845 63.1133 190.845 61.4704L190.982 60.5121H190.845C190.298 61.6074 189.339 62.2919 188.107 62.2919C185.643 62.2919 184.821 60.2383 184.821 57.9109C184.821 55.5835 185.917 53.3931 188.381 53.3931C189.339 53.3931 190.161 53.8038 190.845 54.6252H190.982V53.6669H192.214ZM190.708 55.7205C190.161 55.0359 189.339 54.6252 188.518 54.6252C186.875 54.6252 186.327 56.2681 186.327 58.0478C186.327 59.4169 186.738 60.9228 188.244 60.9228C189.202 60.9228 190.161 60.2383 190.708 59.5538V55.7205Z" fill="#232323"/>
<path d="M196.595 55.3098C197.143 54.2145 198.101 53.53 199.333 53.53H199.744V55.036C199.47 54.8991 199.333 54.8991 199.06 54.8991C197.964 54.8991 197.143 55.7205 196.595 56.6788V62.4288H195.089V53.8038H196.595V55.3098Z" fill="#232323"/>
<path d="M208.095 62.2917C207.821 62.4286 207.274 62.5655 207 62.5655C206.315 62.5655 205.768 62.0179 205.631 61.3333C204.946 62.0179 204.125 62.5655 203.03 62.5655C201.661 62.5655 200.565 61.6072 200.565 60.2381C200.565 58.7322 201.798 57.3631 204.809 57.3631H205.357V56.8155C205.357 55.5834 205.22 54.8989 203.851 54.8989C203.03 54.8989 202.071 55.3096 201.387 55.7203V54.4881C202.345 54.0774 203.304 53.8036 204.262 53.8036C206.726 53.8036 206.863 55.8572 206.863 58.0476V60.1012C206.863 61.6072 207 61.7441 207.684 61.7441H207.958L208.095 62.2917ZM205.494 58.1846H204.809C203.988 58.1846 202.208 58.5953 202.208 59.9643C202.208 60.7857 202.893 61.3333 203.577 61.3333C204.262 61.3333 204.946 60.9227 205.494 60.512V58.1846Z" fill="#232323"/>
<path d="M213.571 53.667V54.8991H211.518V59.5539C211.518 60.6491 211.655 61.4705 212.887 61.4705C213.161 61.4705 213.434 61.4705 213.571 61.3336V62.4289C213.161 62.5658 212.75 62.5658 212.339 62.5658C210.423 62.5658 209.875 60.9229 209.875 60.1015V54.8991H208.78V53.667H209.875V52.0241L211.381 51.8872V53.667H213.571Z" fill="#232323"/>
<path d="M215.214 58.0479C215.214 56.1312 216.036 53.53 219.185 53.53C222.333 53.53 223.155 56.1312 223.155 58.0479C223.155 59.4169 222.607 62.5658 219.185 62.5658C215.762 62.5658 215.214 59.4169 215.214 58.0479ZM221.512 58.0479C221.512 56.405 220.964 54.7622 219.185 54.7622C217.405 54.7622 216.857 56.5419 216.857 58.0479C216.857 59.6907 217.405 61.3336 219.185 61.3336C220.964 61.3336 221.512 59.6907 221.512 58.0479Z" fill="#232323"/>
<path d="M226.851 55.3098C227.399 54.2145 228.357 53.53 229.589 53.53H230V55.036C229.726 54.8991 229.589 54.8991 229.315 54.8991C228.22 54.8991 227.399 55.7205 226.851 56.6788V62.4288H225.345V53.8038H226.851V55.3098Z" fill="#232323"/>
</svg>
