<svg width="33" height="33" viewBox="0 0 33 33" fill="none" xmlns="http://www.w3.org/2000/svg">
<path fill-rule="evenodd" clip-rule="evenodd" d="M33 16.5C33 12.1239 31.2616 7.92709 28.1673 4.83274C25.0729 1.73839 20.8761 -9.12522e-07 16.5 -7.21238e-07C12.1239 -5.29954e-07 7.92709 1.73839 4.83274 4.83274C1.73839 7.92709 -9.12522e-07 12.1239 -7.21238e-07 16.5C-5.29954e-07 20.8761 1.73839 25.0729 4.83274 28.1673C7.92709 31.2616 12.1239 33 16.5 33C20.8761 33 25.0729 31.2616 28.1673 28.1673C31.2616 25.0729 33 20.8761 33 16.5V16.5ZM10.3125 14.4375C9.76549 14.4375 9.24089 14.6548 8.85409 15.0416C8.4673 15.4284 8.25 15.953 8.25 16.5C8.25 17.047 8.4673 17.5716 8.85409 17.9584C9.24089 18.3452 9.76549 18.5625 10.3125 18.5625L17.7086 18.5625L15.0418 21.2293C14.6661 21.6183 14.4582 22.1393 14.4629 22.6801C14.4676 23.2209 14.6845 23.7382 15.0669 24.1206C15.4493 24.503 15.9666 24.7199 16.5074 24.7246C17.0482 24.7293 17.5692 24.5214 17.9582 24.1457L24.1457 17.9582C24.5323 17.5714 24.7496 17.0469 24.7496 16.5C24.7496 15.9531 24.5323 15.4286 24.1457 15.0418L17.9582 8.85431C17.5692 8.47861 17.0482 8.27072 16.5074 8.27542C15.9666 8.28012 15.4493 8.49703 15.0669 8.87944C14.6845 9.26184 14.4676 9.77914 14.4629 10.3199C14.4582 10.8607 14.6661 11.3817 15.0418 11.7707L17.7086 14.4375L10.3125 14.4375Z" fill="black"/>
</svg>
