<svg width="20" height="29" viewBox="0 0 20 29" fill="none" xmlns="http://www.w3.org/2000/svg">
<path d="M8.25 0C7.81239 0 7.39271 0.173839 7.08327 0.483274C6.77384 0.792709 6.6 1.21239 6.6 1.65C6.6 2.08761 6.77384 2.50729 7.08327 2.81673C7.39271 3.12616 7.81239 3.3 8.25 3.3H11.55C11.9876 3.3 12.4073 3.12616 12.7167 2.81673C13.0262 2.50729 13.2 2.08761 13.2 1.65C13.2 1.21239 13.0262 0.792709 12.7167 0.483274C12.4073 0.173839 11.9876 0 11.55 0H8.25Z" fill="black"/>
<path fill-rule="evenodd" clip-rule="evenodd" d="M0 6.60005C0 5.72483 0.347677 4.88547 0.966547 4.2666C1.58542 3.64773 2.42479 3.30005 3.3 3.30005C3.3 4.61287 3.82152 5.87192 4.74982 6.80023C5.67813 7.72853 6.93718 8.25005 8.25 8.25005H11.55C12.8628 8.25005 14.1219 7.72853 15.0502 6.80023C15.9785 5.87192 16.5 4.61287 16.5 3.30005C17.3752 3.30005 18.2146 3.64773 18.8335 4.2666C19.4523 4.88547 19.8 5.72483 19.8 6.60005V24.75C19.8 25.6253 19.4523 26.4646 18.8335 27.0835C18.2146 27.7024 17.3752 28.05 16.5 28.05H3.3C2.42479 28.05 1.58542 27.7024 0.966547 27.0835C0.347677 26.4646 0 25.6253 0 24.75V6.60005ZM16.0165 16.0166C16.3171 15.7054 16.4834 15.2886 16.4797 14.856C16.4759 14.4234 16.3024 14.0095 15.9965 13.7036C15.6905 13.3977 15.2767 13.2241 14.8441 13.2204C14.4114 13.2166 13.9946 13.3829 13.6835 13.6835L8.25 19.1169L6.11655 16.9835C5.80536 16.6829 5.38856 16.5166 4.95594 16.5204C4.52331 16.5241 4.10947 16.6977 3.80355 17.0036C3.49763 17.3095 3.3241 17.7234 3.32034 18.156C3.31658 18.5886 3.48289 19.0054 3.78345 19.3166L7.08345 22.6166C7.39287 22.9259 7.81248 23.0997 8.25 23.0997C8.68752 23.0997 9.10713 22.9259 9.41655 22.6166L16.0165 16.0166V16.0166Z" fill="black"/>
</svg>
