<svg width="72" height="56" viewBox="0 0 72 56" fill="none" xmlns="http://www.w3.org/2000/svg">
<path d="M54.2 55.6C50.2 55.6 46.6667 54.1333 43.6 51.2C40.6667 48.2667 39.2 44.0667 39.2 38.6C39.2 30.3333 41.6 22.6667 46.4 15.6C51.3333 8.53332 59.6 3.33332 71.2 -6.67572e-06V8C66.9333 9.33333 63.3333 10.9333 60.4 12.8C57.6 14.6667 55.5333 16.7333 54.2 19C52.8667 21.2667 52.2 23.7333 52.2 26.4C52.2 28.4 52.9333 29.9333 54.4 31C55.8667 31.9333 57.5333 32.8667 59.4 33.8C61.2667 34.7333 62.9333 36 64.4 37.6C65.8667 39.0667 66.6 41.2667 66.6 44.2C66.6 47.9333 65.4 50.8 63 52.8C60.6 54.6667 57.6667 55.6 54.2 55.6ZM15 55.6C11.1333 55.6 7.66667 54.1333 4.6 51.2C1.66667 48.2667 0.2 44.0667 0.2 38.6C0.2 30.3333 2.6 22.6667 7.4 15.6C12.3333 8.53332 20.5333 3.33332 32 -6.67572e-06V8C27.7333 9.33333 24.2 10.9333 21.4 12.8C18.6 14.6667 16.5333 16.7333 15.2 19C13.8667 21.2667 13.2 23.7333 13.2 26.4C13.2 28.4 13.9333 29.9333 15.4 31C16.8667 31.9333 18.5333 32.8667 20.4 33.8C22.2667 34.7333 23.9333 36 25.4 37.6C26.8667 39.0667 27.6 41.2667 27.6 44.2C27.6 47.9333 26.4 50.8 24 52.8C21.6 54.6667 18.6 55.6 15 55.6Z" fill="black"/>
</svg>
