<?xml version="1.0" encoding="utf-8"?>
<!-- Generator: Adobe Illustrator 25.4.1, SVG Export Plug-In . SVG Version: 6.00 Build 0)  -->
<svg version="1.1" id="Layer_1" xmlns="http://www.w3.org/2000/svg" xmlns:xlink="http://www.w3.org/1999/xlink" x="0px" y="0px"
	 viewBox="0 0 271.5 170" style="enable-background:new 0 0 271.5 170;" xml:space="preserve">
<style type="text/css">
	.st0{fill:#E40521;}
	.st1{fill:#FFFFFF;}
</style>
<g id="XMLID_13_">
	<rect id="XMLID_2_" class="st0" width="271.5" height="170"/>
	<g id="XMLID_4_">
		<g id="XMLID_7_">
			<polygon id="XMLID_8_" class="st1" points="51.7,65.8 63.3,65.8 63.3,93.1 68.6,93.1 68.6,65.8 80.2,65.8 80.2,61.8 51.7,61.8 
							"/>
			<polygon id="XMLID_49_" class="st1" points="89.4,78.8 100.9,78.8 100.9,74.8 89.4,74.8 89.4,65.8 103.1,65.8 103.1,61.8 
				84.1,61.8 84.1,93.1 104,93.1 104,89.1 89.4,89.1 			"/>
			<path id="XMLID_50_" class="st1" d="M122.3,61c-9.5,0-15.6,6.5-15.6,16.4c0,10,6.1,16.4,15.6,16.4c4.1,0,7.5-0.5,11.2-1.6
				l0.4-0.1V80h-5.3v9.2c-1.6,0.5-3.3,0.7-6.3,0.7c-9.3,0-10-9.5-10-12.4c0-3.7,1-12.4,10-12.4c4.2,0,10.9,2.1,11,2.2l0.7,0.2v-4.9
				l-0.4-0.1C130.4,61.7,126.7,61,122.3,61z"/>
			<path id="XMLID_53_" class="st1" d="M161.6,69.9c0-6.4-5.8-8.1-9.3-8.1h-11.1v31.3h5.3V80.2h3.7l9.4,12.9h6.6l-11.1-14.4
				C158.9,77.1,161.6,73.6,161.6,69.9z M146.6,65.8h3.8c3.4,0,5.6,1.7,5.6,4.2c0,5.1-4.4,6.2-8.1,6.2c-0.4,0-0.9,0-1.4-0.1V65.8z"/>
			<path id="XMLID_54_" class="st1" d="M188.8,81.1c0,5.1-0.5,8.7-6.7,8.7c-6,0-7.3-3.4-7.3-8.8V61.8h-5.3v20.8
				c0,7.4,4.3,11.3,12.4,11.3c7.7,0,11.7-3.9,11.7-11.3V61.8h-4.8V81.1z"/>
			<path id="XMLID_55_" class="st1" d="M210.5,74.6c-3.4-1.8-6.3-3.3-6.3-5.8c0-1.2,1.3-3.8,5.1-3.8c2.6,0,7.4,1.8,7.4,1.8l0.8,0
				v-4.5l-0.3-0.1c-2.5-0.8-5-1.2-7.8-1.2c-7.5,0-10.3,5.2-10.3,8.6c0,4.8,4.4,7.1,8.3,9.1c3.5,1.8,6.8,3.6,6.8,6.8
				c0,3-2.9,4.4-5.6,4.4c-3.3,0-6.1-1.1-9-2.4l-0.7-0.3v5.2l0.4,0.1c3.3,1,6,1.4,8.6,1.4c9.2,0,11.6-6,11.6-9.1
				C219.6,79.4,214.8,76.9,210.5,74.6z"/>
		</g>
		<g id="XMLID_1_">
			<path id="XMLID_3_" class="st1" d="M117.7,105.3c0.5,0.3,1.2,0.6,1.8,0.6c0.5,0,1.1-0.3,1.1-0.9c0-1.3-2.9-0.9-2.9-3
				c0-1.2,0.8-1.8,2.1-1.8c0.5,0,0.9,0.1,1.5,0.2v1c-0.5-0.2-1-0.3-1.5-0.3c-0.5,0-1.1,0.2-1.1,0.8c0,1.2,3,1,3,3
				c0,1.3-1.1,1.9-2.3,1.9c-0.6,0-1.2-0.2-1.8-0.4V105.3z"/>
			<path id="XMLID_6_" class="st1" d="M123.8,100.3l1.8,4.9l2.2-4.9h1l-3.8,8.6h-1.1l1.1-2.3l-2.4-6.3H123.8z"/>
			<path id="XMLID_10_" class="st1" d="M129.6,105.3c0.5,0.3,1.2,0.6,1.8,0.6c0.5,0,1.1-0.3,1.1-0.9c0-1.3-2.9-0.9-2.9-3
				c0-1.2,0.8-1.8,2.1-1.8c0.5,0,0.9,0.1,1.5,0.2v1c-0.5-0.2-1-0.3-1.5-0.3c-0.5,0-1.1,0.2-1.1,0.8c0,1.2,3,1,3,3
				c0,1.3-1.1,1.9-2.3,1.9c-0.6,0-1.2-0.2-1.8-0.4V105.3z"/>
			<path id="XMLID_12_" class="st1" d="M138.2,100.3v0.9h-1.4v3.4c0,0.8,0.1,1.4,1,1.4c0.2,0,0.4,0,0.5-0.1v0.8
				c-0.3,0.1-0.6,0.1-0.9,0.1c-1.4,0-1.8-1.2-1.8-1.8v-3.8h-0.8v-0.9h0.8v-1.2l1.1-0.1v1.3H138.2z"/>
			<path id="XMLID_16_" class="st1" d="M140.5,103.6c0,1.3,0.7,2.3,2,2.3c0.6,0,1.2-0.1,1.7-0.4v0.9c-0.6,0.2-1.3,0.4-2,0.4
				c-2.5,0-2.9-2.3-2.9-3.3c0-1.6,0.9-3.3,2.6-3.3c1.9,0,2.3,1.8,2.3,3.5H140.5z M143.1,102.8c0-0.4,0-1.8-1.2-1.8
				c-0.9,0-1.3,1-1.3,1.8H143.1z"/>
			<path id="XMLID_19_" class="st1" d="M147.2,101.4L147.2,101.4c0.5-0.8,1.2-1.3,2.2-1.3c0.7,0,1.5,0.5,1.5,1.3h0.1
				c0.4-0.8,1.2-1.3,2-1.3c0.7,0,1.7,0.4,1.7,1.8v4.7h-1.1v-4.5c0-0.7-0.4-1-0.8-1c-0.8,0-1.4,0.7-1.8,1.3v4.2h-1.1v-4.5
				c0-0.7-0.4-1-0.8-1c-0.8,0-1.4,0.7-1.8,1.3v4.2h-1.1v-6.3h1.1L147.2,101.4z"/>
			<path id="XMLID_21_" class="st1" d="M156.7,105.3c0.5,0.3,1.2,0.6,1.8,0.6c0.5,0,1.1-0.3,1.1-0.9c0-1.3-2.9-0.9-2.9-3
				c0-1.2,0.8-1.8,2.1-1.8c0.5,0,0.9,0.1,1.5,0.2v1c-0.5-0.2-1-0.3-1.5-0.3c-0.5,0-1.1,0.2-1.1,0.8c0,1.2,3,1,3,3
				c0,1.3-1.1,1.9-2.3,1.9c-0.6,0-1.2-0.2-1.8-0.4V105.3z"/>
			<path id="XMLID_23_" class="st1" d="M166.3,98h1.1v1.1h-1.1V98z M167.4,106.6h-1.1v-6.3h1.1V106.6z"/>
			<path id="XMLID_26_" class="st1" d="M170.6,101.4L170.6,101.4c0.6-0.8,1.3-1.3,2.2-1.3c1.1,0,1.7,0.9,1.7,1.8v4.6h-1.1v-4.5
				c0-0.6-0.3-1-0.8-1c-0.8,0-1.5,0.7-1.9,1.4v4.1h-1.1v-6.3h1.1L170.6,101.4z"/>
			<path id="XMLID_28_" class="st1" d="M179.2,100.3v0.9h-1.4v3.4c0,0.8,0.1,1.4,1,1.4c0.2,0,0.4,0,0.5-0.1v0.8
				c-0.3,0.1-0.6,0.1-0.9,0.1c-1.4,0-1.8-1.2-1.8-1.8v-3.8h-0.8v-0.9h0.8v-1.2l1.1-0.1v1.3H179.2z"/>
			<path id="XMLID_30_" class="st1" d="M181.6,103.6c0,1.3,0.7,2.3,2,2.3c0.6,0,1.2-0.1,1.7-0.4v0.9c-0.6,0.2-1.3,0.4-2,0.4
				c-2.5,0-2.9-2.3-2.9-3.3c0-1.6,0.9-3.3,2.6-3.3c1.9,0,2.3,1.8,2.3,3.5H181.6z M184.1,102.8c0-0.4,0-1.8-1.2-1.8
				c-0.9,0-1.3,1-1.3,1.8H184.1z"/>
			<path id="XMLID_33_" class="st1" d="M192.2,100.3v5.6c0,1.9-0.8,3.1-3,3.1c-0.6,0-1.3-0.1-1.9-0.3l0.1-1c0.6,0.3,1.2,0.5,1.9,0.5
				c1.6,0,1.9-1,1.9-2.2l0.1-0.7h-0.1c-0.4,0.8-1.1,1.3-2,1.3c-1.8,0-2.4-1.5-2.4-3.2c0-1.7,0.8-3.3,2.6-3.3c0.7,0,1.3,0.3,1.8,0.9
				h0.1v-0.7H192.2z M191.1,101.8c-0.4-0.5-1-0.8-1.6-0.8c-1.2,0-1.6,1.2-1.6,2.5c0,1,0.3,2.1,1.4,2.1c0.7,0,1.4-0.5,1.8-1V101.8z"
				/>
			<path id="XMLID_36_" class="st1" d="M195.3,101.4L195.3,101.4c0.4-0.8,1.1-1.3,2-1.3h0.3v1.1c-0.2-0.1-0.3-0.1-0.5-0.1
				c-0.8,0-1.4,0.6-1.8,1.3v4.2h-1.1v-6.3h1.1L195.3,101.4z"/>
			<path id="XMLID_38_" class="st1" d="M203.8,106.5c-0.2,0.1-0.6,0.2-0.8,0.2c-0.5,0-0.9-0.4-1-0.9c-0.5,0.5-1.1,0.9-1.9,0.9
				c-1,0-1.8-0.7-1.8-1.7c0-1.1,0.9-2.1,3.1-2.1h0.4v-0.4c0-0.9-0.1-1.4-1.1-1.4c-0.6,0-1.3,0.3-1.8,0.6v-0.9
				c0.7-0.3,1.4-0.5,2.1-0.5c1.8,0,1.9,1.5,1.9,3.1v1.5c0,1.1,0.1,1.2,0.6,1.2h0.2L203.8,106.5z M201.9,103.5h-0.5
				c-0.6,0-1.9,0.3-1.9,1.3c0,0.6,0.5,1,1,1c0.5,0,1-0.3,1.4-0.6V103.5z"/>
			<path id="XMLID_41_" class="st1" d="M207.7,100.3v0.9h-1.4v3.4c0,0.8,0.1,1.4,1,1.4c0.2,0,0.4,0,0.5-0.1v0.8
				c-0.3,0.1-0.6,0.1-0.9,0.1c-1.4,0-1.8-1.2-1.8-1.8v-3.8h-0.8v-0.9h0.8v-1.2l1.1-0.1v1.3H207.7z"/>
			<path id="XMLID_43_" class="st1" d="M208.9,103.4c0-1.4,0.6-3.3,2.9-3.3c2.3,0,2.9,1.9,2.9,3.3c0,1-0.4,3.3-2.9,3.3
				C209.4,106.7,208.9,104.4,208.9,103.4z M213.5,103.4c0-1.2-0.4-2.4-1.7-2.4c-1.3,0-1.7,1.3-1.7,2.4c0,1.2,0.4,2.4,1.7,2.4
				C213.2,105.8,213.5,104.6,213.5,103.4z"/>
			<path id="XMLID_46_" class="st1" d="M217.4,101.4L217.4,101.4c0.4-0.8,1.1-1.3,2-1.3h0.3v1.1c-0.2-0.1-0.3-0.1-0.5-0.1
				c-0.8,0-1.4,0.6-1.8,1.3v4.2h-1.1v-6.3h1.1L217.4,101.4z"/>
		</g>
	</g>
</g>
</svg>
